<svg xmlns="http://www.w3.org/2000/svg" viewBox="0 0 162.58 61.77"><defs><style>.a{fill:#606417;}.b{fill:#23240c;}</style></defs><title>bachduong-interior</title><path class="a" d="M3.49,14.21V4H1.8V3H6.3V4H4.61V14.21Z"/><path class="a" d="M10.62,14.21V3h1.12V8.08h2V3H14.9v11.2H13.79V9.07h-2v5.14Z"/><path class="a" d="M19.79,14.21V3h1.12v11.2Z"/><path class="a" d="M25.78,14.21V3h3.71V4H26.9V8.08h2.45v1H26.9v4.15h2.59v1Zm.11-11.68,1.25-1H28l1.24,1h-.92l-.76-.63-.77.63ZM27.26,1v0L28.65,0h1V0L28.13,1Z"/><path class="a" d="M35.37,14.21V4h-1.7V3h4.51V4H36.49V14.21Z"/><path class="a" d="M48.81,14.21V3H50V5.43l-.09,3.5h.35l1-3.53L52,3H53.2L51.54,8l1.85,6.19H52.24l-1.4-4.83-.9,2.31v2.52Z"/><path class="a" d="M57.75,14.21V3h3.71V4H58.87V8.08h2.45v1H58.87v4.15h2.59v1Zm.12-11.68,1.24-1H60l1.25,1h-.92l-.76-.63-.77.63ZM59.24,1v0L60.62,0h1V0L60.11,1Z"/><path class="a" d="M73,14.21,71.77,3h1.15l.64,6.23.31,4h.54l.33-4L75.37,3h1.14l-1.24,11.2Z"/><path class="a" d="M80.18,14.21,81.39,3h2.28l1.2,11.2H83.74l-.3-3.16H81.6l-.28,3.16Zm.38-12.67v0h1L83,2.44v0h-.86ZM81.69,10h1.67l-.22-2.37L82.83,4h-.6l-.31,3.69Z"/><path class="a" d="M95.13,14.21,96.45,8.5,95.19,3h1.09l.57,2.76L97.22,8h.45L98,5.78,98.59,3h1.09L98.45,8.53l1.29,5.68H98.65l-.59-2.77L97.67,9h-.45l-.39,2.4-.62,2.77Z"/><path class="a" d="M103.59,14.21,104.79,3h2.29l1.2,11.2h-1.14l-.29-3.16H105l-.28,3.16Zm.63-11.69,1.24-1h.89l1.24,1h-.92l-.76-.63-.77.63ZM105.1,10h1.67l-.23-2.37L106.23,4h-.6l-.3,3.69Z"/><path class="a" d="M113.61,14.21V10.33h-.39L111.89,3H113l.49,3.16L114,9.38h.42l.42-3.21L115.28,3h1.15l-1.35,7.32h-.38v3.88Z"/><path class="a" d="M127.05,14.21V3h2.12a2.42,2.42,0,0,1,1.61.43,1.9,1.9,0,0,1,.5,1.43c0,.89,0,1.73,0,2.54v2.4c0,.79,0,1.64,0,2.54a1.89,1.89,0,0,1-.49,1.43,2.25,2.25,0,0,1-1.54.43Zm1.12-1h1.08A1,1,0,0,0,130,13a.79.79,0,0,0,.21-.6c0-.72,0-1.39,0-2s0-1.22,0-1.81,0-1.19,0-1.81,0-1.3,0-2a.7.7,0,0,0-.23-.58,1.15,1.15,0,0,0-.77-.19h-1Z"/><path class="a" d="M138.25,14.31a2.46,2.46,0,0,1-1.63-.44,1.94,1.94,0,0,1-.51-1.47c0-1.57,0-3.14,0-4.69s0-3.12,0-4.7h1.11c0,1.58,0,3.16,0,4.74v4.74a.81.81,0,0,0,.24.66,1.82,1.82,0,0,0,1.62,0,.84.84,0,0,0,.23-.66c0-1.58,0-3.16,0-4.74s0-3.16,0-4.74h1.1c0,1.58,0,3.14,0,4.7s0,3.12,0,4.69a1.94,1.94,0,0,1-.51,1.47A2.45,2.45,0,0,1,138.25,14.31Zm-.66,1.4v-.87h1.33v.87Zm2.54-10.12a2,2,0,0,1-.34,0V5h.35a1,1,0,0,0,.69-.2,1.14,1.14,0,0,0,.21-.7V3h.67V4.07a1.78,1.78,0,0,1-.41,1.17A1.65,1.65,0,0,1,140.13,5.59Z"/><path class="a" d="M145.55,14.21V3h2.33l.63,3.54,1,6.67h.6L150,7,149.9,3H151v11.2h-2.41l-.67-4L147.07,4h-.6l.13,6,.07,4.24Z"/><path class="a" d="M158.08,14.31a2.49,2.49,0,0,1-1.68-.45,1.92,1.92,0,0,1-.52-1.48q-.07-3.77,0-7.49a2.07,2.07,0,0,1,.52-1.52,3.22,3.22,0,0,1,3.3,0,2.08,2.08,0,0,1,.55,1.48c0,.69,0,1.37,0,2.05h-1.11c0-.39,0-.75,0-1.07s0-.67,0-1.07a1,1,0,0,0-.24-.7,2,2,0,0,0-1.68,0,.93.93,0,0,0-.24.7c0,1,0,1.83,0,2.64s0,1.63,0,2.44,0,1.69,0,2.63a.94.94,0,0,0,.24.71,1.45,1.45,0,0,0,.86.19,1.5,1.5,0,0,0,.88-.19,1,1,0,0,0,.25-.71c0-.65,0-1.31,0-2h-1.12v-1h2.2c0,.59,0,1.11,0,1.56s0,.9,0,1.33a2,2,0,0,1-.53,1.48A2.52,2.52,0,0,1,158.08,14.31Z"/><path class="b" d="M1.51,50.21V21.41H7.88q3.42,0,5,1.37t1.58,4.53v2q0,.88,0,1.74a5.71,5.71,0,0,1-.78,2.76,3.64,3.64,0,0,1-2.1,1.46V36a3.69,3.69,0,0,1,2.19,1.47,5.47,5.47,0,0,1,.76,2.81c.05.74.06,1.42.05,2s0,1.26-.05,2q-.11,3.16-1.62,4.53t-5,1.37ZM5.62,33.79H8c1.53,0,2.3-.93,2.3-2.8,0-.7,0-1.35,0-1.95s0-1.25,0-1.94c0-1.35-.81-2-2.45-2H5.62Zm0,12.75h2.3A2.63,2.63,0,0,0,9.79,46a2.34,2.34,0,0,0,.61-1.71q0-1.91,0-3.78a4,4,0,0,0-.57-2.34A2.19,2.19,0,0,0,8,37.47H5.62Z"/><path class="b" d="M16.7,50.21l3.57-28.8h7.52l3.57,28.8H27.11l-.65-7.09H21.64L21,50.21ZM22,39.48h4.06l-.57-6.23-.65-8.17H23.22l-.61,8.17Zm0,15.16V51.9h4v2.74Z"/><path class="b" d="M40.93,50.53q-3.52,0-5.13-1.42c-1.07-1-1.61-2.51-1.64-4.7s-.07-4-.09-5.85,0-3.67,0-5.5,0-3.8.09-5.89a6,6,0,0,1,1.66-4.61q1.62-1.44,5.08-1.44t5,1.48a6.24,6.24,0,0,1,1.72,4.61c0,.76,0,1.53,0,2.3s0,1.54-.07,2.3H43.52c0-.81,0-1.62.06-2.41s0-1.59,0-2.41a2.54,2.54,0,0,0-.65-1.91,3,3,0,0,0-2-.54,2.93,2.93,0,0,0-2,.54A2.54,2.54,0,0,0,38.27,27q-.08,3.24-.09,6c0,1.86,0,3.73,0,5.6s0,3.87.09,6a2.62,2.62,0,0,0,.65,1.93,3,3,0,0,0,2,.55A3.11,3.11,0,0,0,43,46.56a2.67,2.67,0,0,0,.7-1.93c0-.79,0-1.55,0-2.29s0-1.63-.07-2.71h4.14c0,.86,0,1.69,0,2.5s0,1.56,0,2.28c-.07,2.19-.64,3.75-1.71,4.7S43.31,50.53,40.93,50.53Z"/><path class="b" d="M50.33,50.21V21.41h4.1V33.79h4.9V21.41h4.14v28.8H59.33V37.47h-4.9V50.21Z"/><path class="b" d="M74.77,50.21V21.41h6.52q3.45,0,5,1.42t1.59,4.66q.06,3,.09,5.64t0,5.34c0,1.78,0,3.65-.09,5.62,0,2.18-.54,3.75-1.55,4.7s-2.65,1.42-4.93,1.42Zm4.11-3.67H81.4a2.65,2.65,0,0,0,1.78-.49,2,2,0,0,0,.59-1.49q.08-3.14.11-5.94c0-1.87,0-3.75,0-5.62s-.06-3.85-.11-5.94a1.93,1.93,0,0,0-.61-1.49,2.85,2.85,0,0,0-1.87-.49H78.88Z"/><path class="b" d="M97.81,50.5c-2.37,0-4.08-.47-5.11-1.41s-1.57-2.48-1.62-4.64Q91,38.69,91,32.93t.07-11.52h4.14c-.07,3.84-.1,7.75-.07,11.74s0,7.89.07,11.73c0,1.47.86,2.2,2.59,2.2s2.59-.73,2.59-2.2c0-3.84,0-7.75.08-11.73s0-7.9-.08-11.74h4.14q.08,5.76.08,11.52t-.08,11.52q0,3.24-1.6,4.64T97.81,50.5Zm5.65-21.31-.63,0a5.86,5.86,0,0,1-.63-.06v-2l.65.06a4.71,4.71,0,0,0,.65,0,3.11,3.11,0,0,0,2-.67,2.74,2.74,0,0,0,.69-1.89c0-.45,0-1,0-1.67s0-1.17,0-1.53h2.3c0,.41,0,.94,0,1.58s0,1.18,0,1.59a5.15,5.15,0,0,1-1.33,3.54A5.44,5.44,0,0,1,103.46,29.19Z"/><path class="b" d="M116.71,50.5c-2.37,0-4.08-.48-5.13-1.42s-1.59-2.53-1.64-4.74-.07-4.07-.09-5.88,0-3.62,0-5.4.05-3.72.09-5.78q.07-3.32,1.64-4.74c1-.94,2.76-1.42,5.13-1.42s4,.48,5.06,1.42,1.6,2.53,1.67,4.74.09,4,.11,5.81,0,3.58,0,5.38-.06,3.76-.11,5.87-.63,3.79-1.67,4.74S119,50.5,116.71,50.5Zm0-3.42a2.9,2.9,0,0,0,2-.56,2.67,2.67,0,0,0,.59-2c.08-2.11.12-4.09.15-5.94s0-3.69,0-5.54-.07-3.84-.15-6a2.61,2.61,0,0,0-.59-2,2.9,2.9,0,0,0-2-.56,2.93,2.93,0,0,0-2,.56,2.61,2.61,0,0,0-.6,2c-.07,2.11-.12,4.09-.16,5.92s0,3.69,0,5.55.09,3.86.16,6a2.67,2.67,0,0,0,.6,2A2.93,2.93,0,0,0,116.71,47.08Zm5.69-17.89-.63,0a5.63,5.63,0,0,1-.63-.06v-2c.22,0,.43.05.65.06a4.75,4.75,0,0,0,.65,0,3.11,3.11,0,0,0,2-.67,2.74,2.74,0,0,0,.68-1.89c0-.45,0-1,0-1.67s0-1.17,0-1.53h2.31c0,.41,0,.94,0,1.58s0,1.18,0,1.59a5.15,5.15,0,0,1-1.34,3.54A5.39,5.39,0,0,1,122.4,29.19Z"/><path class="b" d="M128.38,50.21V21.41h7.45l1.87,9.14,2.27,16h1.58l-.65-13.86-.32-11.27h4.14v28.8H137L135,40.35l-1.88-15.3h-1.62l.62,14.18.32,11Z"/><path class="b" d="M154.94,50.5q-3.56,0-5.13-1.41t-1.67-4.68c0-1.75,0-3.61-.07-5.58s0-3.93,0-5.9.05-3.82.07-5.54q.15-3.36,1.69-4.81c1-1,2.74-1.46,5.11-1.46s4,.47,5,1.41,1.61,2.48,1.73,4.64c.07,1.56.07,3.11,0,4.64h-4.14q.11-2.55,0-5.07a2.38,2.38,0,0,0-.63-1.71,3,3,0,0,0-2-.49,3.11,3.11,0,0,0-2,.49,2.3,2.3,0,0,0-.65,1.71c-.12,3.09-.18,6.12-.18,9.07s.06,6,.18,9a2.35,2.35,0,0,0,.65,1.74,3.11,3.11,0,0,0,2,.49,3.46,3.46,0,0,0,2.15-.49,2.35,2.35,0,0,0,.66-1.74,40.25,40.25,0,0,0,0-4.11h-2.41V37.11h6.44c.05,1.29.07,2.56.06,3.79s0,2.41-.09,3.51q-.1,3.29-1.68,4.68T154.94,50.5Z"/></svg>