<svg xmlns="http://www.w3.org/2000/svg" viewBox="0 0 141.36 218.59"><title>bachduongdecons</title><g id="Layer_2" data-name="Layer 2"><path d="M53.05,111.59c-.56,0-1.12,0-1.69,0s-1.13,0-1.69,0Z"/><path d="M63.6,107.75a49.67,49.67,0,0,1-5.18,1.12A38.44,38.44,0,0,1,63.6,107.75Z"/><path d="M96.93,27.56A54.81,54.81,0,0,0,49.36,0H0V109.59H51.05a52.29,52.29,0,0,0,7.35-.72s0,0,0,0a38.44,38.44,0,0,1,5.18-1.12A54.92,54.92,0,0,0,96.93,82.06c.28-.5.56-1,.83-1.51a54.89,54.89,0,0,0-.83-53ZM68,74.71a27.08,27.08,0,0,1-18.6,7.35H32.11V27.56H49.36A27.24,27.24,0,0,1,68,74.71Z"/><path d="M141.36,146.76a71.52,71.52,0,0,1-11.75,39.41l-.27.42a72,72,0,0,1-54.39,32H0v-81.5H32.11v49.08H69.3a39.42,39.42,0,0,0,39.42-39.41A39.35,39.35,0,0,0,102.14,125a88.69,88.69,0,0,0,22.27-24.59,69.26,69.26,0,0,1,6.62,9.23,72,72,0,0,1,10.33,37.17Z"/></g></svg>